<?xml version="1.0" encoding="UTF-8"?>
<svg xmlns="http://www.w3.org/2000/svg" xmlns:xlink="http://www.w3.org/1999/xlink" width="13pt" height="13pt" viewBox="0 0 13 13" version="1.1">
<g id="surface1">
<path style="fill:#ffffff;fill-opacity:1;" d="M 4.292969 7.3125 L 3.132812 7.3125 C 2.941406 7.3125 2.785156 7.175781 2.785156 7.007812 L 2.785156 5.992188 C 2.785156 5.824219 2.941406 5.6875 3.132812 5.6875 L 4.292969 5.6875 C 4.484375 5.6875 4.644531 5.824219 4.644531 5.992188 L 4.644531 7.007812 C 4.644531 7.175781 4.484375 7.3125 4.292969 7.3125 Z M 7.429688 7.007812 L 7.429688 5.992188 C 7.429688 5.824219 7.273438 5.6875 7.082031 5.6875 L 5.917969 5.6875 C 5.726562 5.6875 5.570312 5.824219 5.570312 5.992188 L 5.570312 7.007812 C 5.570312 7.175781 5.726562 7.3125 5.917969 7.3125 L 7.082031 7.3125 C 7.273438 7.3125 7.429688 7.175781 7.429688 7.007812 Z M 10.214844 7.007812 L 10.214844 5.992188 C 10.214844 5.824219 10.058594 5.6875 9.867188 5.6875 L 8.707031 5.6875 C 8.515625 5.6875 8.355469 5.824219 8.355469 5.992188 L 8.355469 7.007812 C 8.355469 7.175781 8.515625 7.3125 8.707031 7.3125 L 9.867188 7.3125 C 10.058594 7.3125 10.214844 7.175781 10.214844 7.007812 Z M 7.429688 9.445312 L 7.429688 8.429688 C 7.429688 8.261719 7.273438 8.125 7.082031 8.125 L 5.917969 8.125 C 5.726562 8.125 5.570312 8.261719 5.570312 8.429688 L 5.570312 9.445312 C 5.570312 9.613281 5.726562 9.75 5.917969 9.75 L 7.082031 9.75 C 7.273438 9.75 7.429688 9.613281 7.429688 9.445312 Z M 4.644531 9.445312 L 4.644531 8.429688 C 4.644531 8.261719 4.484375 8.125 4.292969 8.125 L 3.132812 8.125 C 2.941406 8.125 2.785156 8.261719 2.785156 8.429688 L 2.785156 9.445312 C 2.785156 9.613281 2.941406 9.75 3.132812 9.75 L 4.292969 9.75 C 4.484375 9.75 4.644531 9.613281 4.644531 9.445312 Z M 10.214844 9.445312 L 10.214844 8.429688 C 10.214844 8.261719 10.058594 8.125 9.867188 8.125 L 8.707031 8.125 C 8.515625 8.125 8.355469 8.261719 8.355469 8.429688 L 8.355469 9.445312 C 8.355469 9.613281 8.515625 9.75 8.707031 9.75 L 9.867188 9.75 C 10.058594 9.75 10.214844 9.613281 10.214844 9.445312 Z M 13 2.84375 L 13 11.78125 C 13 12.453125 12.375 13 11.605469 13 L 1.394531 13 C 0.625 13 0 12.453125 0 11.78125 L 0 2.84375 C 0 2.171875 0.625 1.625 1.394531 1.625 L 2.785156 1.625 L 2.785156 0.304688 C 2.785156 0.136719 2.941406 0 3.132812 0 L 4.292969 0 C 4.484375 0 4.644531 0.136719 4.644531 0.304688 L 4.644531 1.625 L 8.355469 1.625 L 8.355469 0.304688 C 8.355469 0.136719 8.515625 0 8.707031 0 L 9.867188 0 C 10.058594 0 10.214844 0.136719 10.214844 0.304688 L 10.214844 1.625 L 11.605469 1.625 C 12.375 1.625 13 2.171875 13 2.84375 Z M 11.605469 11.628906 L 11.605469 4.0625 L 1.394531 4.0625 L 1.394531 11.628906 C 1.394531 11.710938 1.472656 11.78125 1.566406 11.78125 L 11.433594 11.78125 C 11.527344 11.78125 11.605469 11.710938 11.605469 11.628906 Z M 11.605469 11.628906 "/>
</g>
</svg>
