<?xml version="1.0" encoding="UTF-8"?>
<svg xmlns="http://www.w3.org/2000/svg" xmlns:xlink="http://www.w3.org/1999/xlink" width="10pt" height="10pt" viewBox="0 0 10 10" version="1.1">
<g id="surface1">
<path style=" stroke:none;fill-rule:evenodd;fill:rgb(55.294118%,55.294118%,55.294118%);fill-opacity:1;" d="M 8.949219 2.628906 C 8.851562 2.675781 8.773438 2.761719 8.738281 2.867188 C 8.699219 2.972656 8.707031 3.085938 8.753906 3.183594 C 9.027344 3.75 9.167969 4.371094 9.164062 5 C 9.164062 7.300781 7.300781 9.164062 5 9.164062 C 2.699219 9.164062 0.835938 7.300781 0.835938 5 C 0.835938 2.699219 2.699219 0.835938 5 0.835938 C 5.9375 0.832031 6.851562 1.148438 7.585938 1.730469 C 7.765625 1.875 8.027344 1.84375 8.171875 1.664062 C 8.3125 1.484375 8.285156 1.222656 8.105469 1.078125 C 6.277344 -0.367188 3.691406 -0.359375 1.875 1.097656 C 0.0546875 2.554688 -0.515625 5.078125 0.5 7.175781 C 1.511719 9.273438 3.84375 10.394531 6.117188 9.871094 C 8.386719 9.351562 10 7.332031 10 5 C 10.003906 4.246094 9.832031 3.503906 9.503906 2.824219 C 9.457031 2.726562 9.371094 2.648438 9.269531 2.613281 C 9.164062 2.574219 9.050781 2.582031 8.949219 2.628906 Z M 8.949219 2.628906 L 5 1.664062 C 4.769531 1.667969 4.585938 1.855469 4.585938 2.085938 L 4.585938 5 C 4.585938 5.109375 4.628906 5.214844 4.707031 5.292969 C 4.785156 5.371094 4.890625 5.414062 5 5.414062 L 7.085938 5.414062 C 7.3125 5.414062 7.5 5.230469 7.5 5 C 7.5 4.769531 7.3125 4.585938 7.085938 4.585938 L 5.414062 4.585938 L 5.414062 2.085938 C 5.414062 1.855469 5.230469 1.667969 5 1.664062 Z M 8.949219 2.628906 "/>
</g>
</svg>
