<?xml version="1.0" encoding="UTF-8"?>
<svg xmlns="http://www.w3.org/2000/svg" xmlns:xlink="http://www.w3.org/1999/xlink" width="10pt" height="10pt" viewBox="0 0 10 10" version="1.1">
<g id="surface1">
<path style=" stroke:none;fill-rule:evenodd;fill:rgb(55.294118%,55.294118%,55.294118%);fill-opacity:1;" d="M 8.535156 6.464844 C 8 5.925781 7.351562 5.519531 6.636719 5.269531 C 7.679688 4.554688 8.136719 3.242188 7.761719 2.03125 C 7.386719 0.820312 6.265625 -0.00390625 5 -0.00390625 C 3.734375 -0.00390625 2.613281 0.820312 2.238281 2.03125 C 1.863281 3.242188 2.320312 4.554688 3.363281 5.269531 C 1.351562 5.972656 0.00390625 7.867188 0 10 L 0.78125 10 C 0.78125 7.667969 2.667969 5.78125 5 5.78125 C 7.332031 5.78125 9.21875 7.667969 9.21875 10 L 10 10 C 10.003906 8.671875 9.476562 7.398438 8.535156 6.464844 Z M 2.890625 2.890625 C 2.890625 1.726562 3.835938 0.78125 5 0.78125 C 6.164062 0.78125 7.109375 1.726562 7.109375 2.890625 C 7.109375 4.054688 6.164062 5 5 5 C 3.835938 5 2.890625 4.054688 2.890625 2.890625 Z M 2.890625 2.890625 "/>
</g>
</svg>
