<?xml version="1.0" encoding="UTF-8"?>
<svg xmlns="http://www.w3.org/2000/svg" xmlns:xlink="http://www.w3.org/1999/xlink" width="11pt" height="13pt" viewBox="0 0 11 13" version="1.1">
<g id="surface1">
<path style="fill:#ffffff;fill-opacity:1;" d="M 7.699219 7.71875 C 6.996094 7.71875 6.65625 8.125 5.5 8.125 C 4.34375 8.125 4.007812 7.71875 3.300781 7.71875 C 1.476562 7.71875 0 9.246094 0 11.132812 L 0 11.78125 C 0 12.453125 0.527344 13 1.179688 13 L 9.820312 13 C 10.472656 13 11 12.453125 11 11.78125 L 11 11.132812 C 11 9.246094 9.523438 7.71875 7.699219 7.71875 Z M 9.820312 11.78125 L 1.179688 11.78125 L 1.179688 11.132812 C 1.179688 9.921875 2.132812 8.9375 3.300781 8.9375 C 3.660156 8.9375 4.242188 9.34375 5.5 9.34375 C 6.769531 9.34375 7.339844 8.9375 7.699219 8.9375 C 8.867188 8.9375 9.820312 9.921875 9.820312 11.132812 Z M 5.5 7.3125 C 7.453125 7.3125 9.035156 5.675781 9.035156 3.65625 C 9.035156 1.636719 7.453125 0 5.5 0 C 3.546875 0 1.964844 1.636719 1.964844 3.65625 C 1.964844 5.675781 3.546875 7.3125 5.5 7.3125 Z M 5.5 1.21875 C 6.800781 1.21875 7.855469 2.3125 7.855469 3.65625 C 7.855469 5 6.800781 6.09375 5.5 6.09375 C 4.199219 6.09375 3.144531 5 3.144531 3.65625 C 3.144531 2.3125 4.199219 1.21875 5.5 1.21875 Z M 5.5 1.21875 "/>
</g>
</svg>
